<svg width="63" height="63" viewBox="0 0 63 63" fill="none" xmlns="http://www.w3.org/2000/svg">
<path d="M57.0933 51.1875H23.6246C23.1025 51.1874 22.6018 50.9799 22.2327 50.6107L4.51392 32.8919C4.14484 32.5227 3.9375 32.022 3.9375 31.5C3.9375 30.978 4.14484 30.4773 4.51392 30.1081L22.2327 12.3893C22.6018 12.0201 23.1025 11.8126 23.6246 11.8125H57.0933C57.6155 11.8125 58.1162 12.0199 58.4854 12.3891C58.8547 12.7583 59.0621 13.2591 59.0621 13.7812V49.2188C59.0621 49.7409 58.8547 50.2417 58.4854 50.6109C58.1162 50.9801 57.6155 51.1875 57.0933 51.1875ZM24.4396 47.25H55.1246V15.75H24.4396L8.68964 31.5L24.4396 47.25Z" fill="black" fill-opacity="0.5"/>
<path d="M40.1901 31.5L49.2188 22.4713L46.4349 19.6875L37.4062 28.7162L28.3776 19.6875L25.5938 22.4713L34.6224 31.5L25.5938 40.5287L28.3776 43.3125L37.4062 34.2838L46.4349 43.3125L49.2188 40.5287L40.1901 31.5Z" fill="black" fill-opacity="0.5"/>
</svg>
